# xmcd
#
# Track frame offsets:
#	225
#	11800
#	25002
#	37390
#	48140
#	60427
#	74492
#	86170
#	100012
#	112817
#	130005
#
# Disc length: 1866 seconds
#
# Revision: 1
# Processed by: cddbd v1.5.1PL0 Copyright (c) Steve Scherf et al.
# Submitted via: audiograbber 1.81.02
#
DISCID=8b07470b
DTITLE=Michael Dee - Steal Of The Night
DYEAR=1989
DGENRE=Country
TTITLE0=Quittin' Time
TTITLE1=Promised Land
TTITLE2=Since I Met You Baby
TTITLE3=Walk On By
TTITLE4=I Can't See Me Without You
TTITLE5=If The Jukebox Took Teardrops
TTITLE6=I'm On My Way To A Fire
TTITLE7=Steal Of The Night
TTITLE8=Where The Sun Don't Shine
TTITLE9=Mountain Right
TTITLE10=This Time
EXTD=
EXTT0=
EXTT1=
EXTT2=
EXTT3=
EXTT4=
EXTT5=
EXTT6=
EXTT7=
EXTT8=
EXTT9=
EXTT10=
PLAYORDER=
